<svg width="76" height="26" viewBox="0 0 76 26" fill="none" xmlns="http://www.w3.org/2000/svg">
<g clip-path="url(#clip0_258_1062)">
<path d="M13.8038 11.7968C14.9447 10.3539 16.2314 9.73692 17.1861 9.46357C18.1197 9.19608 19.1177 9.15313 20.174 9.33178C19.4577 8.55763 18.9809 8.04218 18.9809 8.04218C18.3431 7.35296 17.7032 6.66667 17.0684 5.97549C16.6348 5.50397 16.2596 5.05588 15.6791 4.73958C15.1016 4.42524 14.4437 4.25928 13.7807 4.25928C13.0412 4.25928 12.3089 4.46624 11.6861 4.8538C11.3813 5.04417 11.1036 5.27554 10.8652 5.53912C10.4085 6.04285 9.98692 6.57295 9.52414 7.07278C9.24145 7.37834 8.95875 7.6839 8.67606 7.98946L0.952716 16.3402C0.364185 16.9073 0 17.6922 0 18.5601C0 20.288 1.44366 21.6889 3.22435 21.6889C4.11268 21.6889 4.9165 21.3404 5.5 20.7771H5.50101L5.52213 20.7547C5.59256 20.6854 5.65996 20.6131 5.72334 20.538L13.8048 11.7977L13.8038 11.7968Z" fill="#6225F0"/>
<path d="M26.7032 16.3918C26.7032 16.3918 23.512 12.9408 21.2324 10.4768C19.8481 10.0209 18.5754 9.95453 17.4346 10.2816C16.0825 10.6691 15.1016 11.5565 14.4175 12.4605L21.9336 20.5896C21.997 20.6648 22.0644 20.737 22.1348 20.8073L22.1569 20.8298C22.7404 21.393 23.5442 21.7416 24.4326 21.7416C26.2133 21.7416 27.6569 20.3407 27.6569 18.6127C27.6569 17.7449 27.2927 16.96 26.7042 16.3928L26.7032 16.3918Z" fill="#6225F0"/>
<path d="M43.3109 15.9848C42.8884 14.9041 42.1187 14.1084 41.2998 13.5286L33.154 20.6199C33.0785 20.6795 33.0061 20.7429 32.9367 20.8083L32.9135 20.8288C32.3511 21.3785 32.0031 22.1341 32.0031 22.9687C32.0031 24.643 33.4014 25.9999 35.1268 25.9999C35.993 25.9999 36.7767 25.6573 37.3431 25.1047C37.3431 25.1047 40.8693 22.0345 43.335 19.8868C43.7596 18.4273 43.7526 17.1201 43.3099 15.9848H43.3109Z" fill="#6225F0"/>
<path d="M48.8632 10.9865C48.6741 10.6995 48.4427 10.4389 48.1791 10.2143C47.6771 9.78478 47.1469 9.38843 46.6479 8.95303C46.3431 8.68749 46.0383 8.42098 45.7335 8.15545L37.3964 0.895205C36.831 0.342658 36.0463 0 35.1801 0C33.4548 0 32.0564 1.35696 32.0564 3.0312C32.0564 3.86588 32.4045 4.62246 32.9669 5.17013L32.989 5.1916C33.0584 5.25799 33.1308 5.32047 33.2063 5.38002L41.5976 12.6852C43.0765 13.6624 43.7898 14.8046 44.1329 15.6822C44.5172 16.6653 44.6208 17.7469 44.4487 18.9184C45.1912 18.2721 45.6821 17.8446 45.6821 17.8446C46.3703 17.2451 47.0554 16.6438 47.7455 16.0463C48.2164 15.6392 48.664 15.2858 48.9789 14.7401C49.2928 14.1973 49.4578 13.5784 49.4578 12.9556C49.4578 12.2605 49.2516 11.5713 48.8642 10.9865H48.8632Z" fill="#6225F0"/>
<path d="M57.2263 16.0727C58.3762 16.7161 59.6288 16.8225 60.7284 16.7141C60.7284 13.9689 60.7274 5.35759 60.7284 5.27754V5.24728C60.7274 4.46629 60.4195 3.68628 59.8058 3.09078C58.5754 1.89685 56.3873 1.90759 55.1569 3.10152C54.5392 3.70093 54.2314 4.48777 54.2344 5.27461C54.2344 5.27461 54.2354 8.51375 54.2374 11.9452C54.8682 13.925 55.8712 15.3132 57.2274 16.0717L57.2263 16.0727Z" fill="#6225F0"/>
<path d="M75.0775 18.3726C74.4638 17.7771 73.7374 17.5545 72.9336 17.5526L60.9779 17.5467C60.6368 17.5867 60.3129 17.6063 60.005 17.6063C58.5785 17.6063 57.5111 17.2167 56.7877 16.8126C55.7495 16.2317 54.8974 15.3463 54.2374 14.1699C54.2384 17.0937 54.2404 19.6661 54.2414 19.8994C54.2414 19.8994 54.2455 20.5877 54.3209 20.9235C54.4698 21.5844 54.8109 22.2024 55.2938 22.6895C55.7716 23.1708 56.4336 23.4051 57.0895 23.5584C57.5342 23.6628 58 23.7438 58.4588 23.7556C58.8682 23.7663 72.7545 23.7966 72.838 23.7966C73.6479 23.7995 74.4588 23.5008 75.0775 22.9013C76.3078 21.7074 76.3078 19.5656 75.0775 18.3716V18.3726Z" fill="#6225F0"/>
</g>
<defs>
<clipPath id="clip0_258_1062">
<rect width="76" height="26" fill="white"/>
</clipPath>
</defs>
</svg>
