<svg width="212" height="212" viewBox="0 0 212 212" fill="none" xmlns="http://www.w3.org/2000/svg">
<path fill-rule="evenodd" clip-rule="evenodd" d="M168.011 42.8798C168.629 40.1892 170.733 38.0875 173.424 37.4646L184.291 34.9573C184.699 34.8631 184.99 34.4993 184.99 34.0779C184.99 33.6565 184.699 33.2927 184.291 33.1985L173.424 30.6911C170.733 30.0708 168.629 27.9691 168.009 25.2786L165.501 14.4168C165.407 14.0085 165.043 13.718 164.622 13.718C164.203 13.718 163.837 14.0085 163.743 14.4168L161.235 25.2786C160.615 27.9691 158.513 30.0708 155.823 30.6937L144.961 33.1985C144.553 33.2927 144.262 33.6565 144.262 34.0779C144.262 34.4993 144.553 34.8631 144.961 34.9573L155.823 37.4646C158.513 38.0849 160.615 40.1892 161.235 42.8798L163.743 53.7468C163.837 54.1551 164.203 54.4456 164.622 54.4456C165.043 54.4456 165.407 54.1551 165.501 53.7468L168.011 42.8798Z" fill="white" stroke="#008F00" stroke-linecap="round" stroke-linejoin="round"/>
<path fill-rule="evenodd" clip-rule="evenodd" d="M74.5351 29.4798L83.0386 26.6453C83.3632 26.5353 83.583 26.2317 83.583 25.8862C83.583 25.5434 83.3632 25.2398 83.0386 25.1299L76.0505 22.8005C75.0978 22.4838 74.3492 21.7352 74.0325 20.7825L71.7005 13.7944C71.5906 13.4699 71.287 13.25 70.9441 13.25C70.5987 13.25 70.2951 13.4699 70.1851 13.7944L67.8558 20.7825C67.5391 21.7352 66.7905 22.4838 65.8378 22.8005L58.8471 25.1299C58.5199 25.2398 58.3 25.5434 58.3 25.8862C58.3 26.2317 58.5199 26.5353 58.8471 26.6453L65.8378 28.9746C66.7905 29.294 67.5391 30.0425 67.8558 30.9952L70.1851 37.9859C70.2951 38.3131 70.5987 38.533 70.9441 38.533C71.287 38.533 71.5932 38.3131 71.7005 37.9859L74.5351 29.4798Z" fill="white" stroke="#008F00" stroke-linecap="round" stroke-linejoin="round"/>
<path fill-rule="evenodd" clip-rule="evenodd" d="M153.118 78.9959C153.118 98.2879 137.477 113.926 118.185 113.926C98.8928 113.926 83.2545 98.2879 83.2545 78.9959C83.2545 59.7039 98.8928 44.063 118.185 44.063C137.477 44.063 153.118 59.7039 153.118 78.9959Z" fill="#00CC00"/>
<path fill-rule="evenodd" clip-rule="evenodd" d="M118.186 54.9792C135.617 54.9792 150.022 67.7594 152.65 84.455C152.93 82.6701 153.119 80.8589 153.119 78.9954C153.119 59.7034 137.478 44.0625 118.186 44.0625C98.8938 44.0625 83.2529 59.7034 83.2529 78.9954C83.2529 80.8589 83.4414 82.6701 83.7188 84.455C86.3466 67.7594 100.755 54.9792 118.186 54.9792Z" fill="white"/>
<path fill-rule="evenodd" clip-rule="evenodd" d="M153.118 78.9959C153.118 98.2879 137.477 113.926 118.185 113.926C98.8928 113.926 83.2545 98.2879 83.2545 78.9959C83.2545 59.7039 98.8928 44.063 118.185 44.063C137.477 44.063 153.118 59.7039 153.118 78.9959Z" stroke="#008F00" stroke-linejoin="round"/>
<path fill-rule="evenodd" clip-rule="evenodd" d="M119.185 100.272C117.274 100.272 115.717 98.7173 115.717 96.8041V94.9275C111.526 93.4566 108.653 89.4783 108.65 85.0263C108.65 83.1157 110.202 81.561 112.113 81.561C114.029 81.561 115.583 83.1131 115.583 85.0237C115.583 87.0128 117.198 88.6303 119.185 88.6303C121.168 88.6303 122.786 87.0128 122.786 85.0263C122.783 83.045 121.166 81.4275 119.179 81.4249C116.366 81.4249 113.722 80.3309 111.736 78.347C109.747 76.3552 108.65 73.7092 108.655 70.8903C108.653 66.4436 111.524 62.4627 115.717 60.9944L115.714 59.123C115.709 58.2018 116.067 57.3328 116.716 56.6785C117.373 56.0189 118.245 55.6525 119.177 55.6499C121.09 55.6499 122.645 57.202 122.645 59.1126L122.647 60.9865C124.184 61.51 125.521 62.3397 126.631 63.4494C128.62 65.4359 129.714 68.0794 129.714 70.893C129.714 72.8036 128.162 74.3582 126.249 74.3582C124.341 74.3582 122.786 72.8036 122.786 70.893C122.786 69.935 122.406 69.0295 121.729 68.349C121.045 67.6685 120.143 67.2942 119.187 67.2942C117.203 67.2968 115.586 68.9117 115.583 70.8982C115.583 71.8587 115.96 72.7643 116.635 73.4422C117.313 74.1201 118.216 74.4943 119.177 74.4943C124.987 74.4996 129.714 79.2238 129.717 85.0263C129.717 87.8373 128.617 90.4833 126.628 92.4751C125.539 93.5613 124.173 94.404 122.65 94.9301V96.8041C122.65 97.7306 122.291 98.6021 121.637 99.2565C120.98 99.9108 120.111 100.272 119.185 100.272Z" fill="white"/>
<path fill-rule="evenodd" clip-rule="evenodd" d="M118.186 101.305C116.275 101.305 114.718 99.7508 114.718 97.8375V95.9609C110.528 94.49 107.654 90.5117 107.651 86.0597C107.651 84.1491 109.203 82.5945 111.114 82.5945C113.03 82.5945 114.584 84.1465 114.584 86.0571C114.584 88.0463 116.199 89.6637 118.186 89.6637C120.17 89.6637 121.787 88.0463 121.787 86.0597C121.785 84.0785 120.167 82.461 118.181 82.4584C115.367 82.4584 112.724 81.3643 110.737 79.3804C108.748 77.3887 107.651 74.7426 107.656 71.9238C107.654 67.477 110.525 63.4961 114.718 62.0278L114.715 60.1565C114.71 59.2352 115.069 58.3663 115.718 57.7119C116.375 57.0524 117.246 56.686 118.178 56.6833C120.091 56.6833 121.646 58.2354 121.646 60.146L121.648 62.02C123.185 62.5435 124.522 63.3731 125.632 64.4829C127.621 66.4694 128.715 69.1128 128.715 71.9264C128.715 73.837 127.163 75.3917 125.25 75.3917C123.342 75.3917 121.787 73.837 121.787 71.9264C121.787 70.9685 121.408 70.0629 120.73 69.3824C120.047 68.7019 119.144 68.3276 118.188 68.3276C116.205 68.3303 114.587 69.9451 114.584 71.9316C114.584 72.8922 114.961 73.7978 115.637 74.4756C116.314 75.1535 117.217 75.5278 118.178 75.5278C123.988 75.533 128.715 80.2572 128.718 86.0597C128.718 88.8707 127.619 91.5168 125.629 93.5085C124.541 94.5947 123.174 95.4375 121.651 95.9636V97.8375C121.651 98.764 121.293 99.6356 120.638 100.29C119.981 100.944 119.112 101.305 118.186 101.305Z" stroke="#008F00"/>
<path fill-rule="evenodd" clip-rule="evenodd" d="M151.053 194.305C151.053 196.8 133.535 198.82 111.924 198.82C90.3159 198.82 72.7985 196.8 72.7985 194.305C72.7985 191.811 90.3159 189.791 111.924 189.791C133.535 189.791 151.053 191.811 151.053 194.305Z" fill="#B3F0B3"/>
<path fill-rule="evenodd" clip-rule="evenodd" d="M168.085 134.616C167.316 134.616 166.536 134.763 165.782 135.077L138.659 146.041C137.584 146.475 136.429 146.7 135.27 146.7H132.514C135.84 146.7 138.534 144.004 138.534 140.681C138.534 137.357 135.84 134.661 132.514 134.661H120.877C111.183 134.661 113.452 124.126 96.3954 124.126H79.8411V157.295C84.2826 157.264 88.2164 157.005 93.7362 158.952L100.402 161.305C105.972 163.27 111.809 164.26 117.658 164.26C121.456 164.26 125.259 163.843 128.996 163.006C130.698 162.875 168.74 146.881 170.389 146.198C172.708 145.24 174.108 142.997 174.108 140.633C174.108 137.351 171.441 134.616 168.085 134.616Z" fill="white"/>
<path d="M132.514 146.7H106.933" stroke="#008F00" stroke-linecap="round"/>
<path fill-rule="evenodd" clip-rule="evenodd" d="M168.085 134.616C167.316 134.616 166.536 134.763 165.782 135.077L138.659 146.041C137.584 146.475 136.429 146.7 135.27 146.7H132.514C135.84 146.7 138.534 144.004 138.534 140.681C138.534 137.357 135.84 134.661 132.514 134.661H120.877C111.183 134.661 113.452 124.126 96.3954 124.126H79.8411V157.295C84.2826 157.264 88.2164 157.005 93.7362 158.952L100.402 161.305C105.972 163.27 111.809 164.26 117.658 164.26C121.456 164.26 125.259 163.843 128.996 163.006C130.698 162.875 168.74 146.881 170.389 146.198C172.708 145.24 174.108 142.997 174.108 140.633C174.108 137.351 171.441 134.616 168.085 134.616Z" stroke="#008F00" stroke-linecap="round" stroke-linejoin="round"/>
<path fill-rule="evenodd" clip-rule="evenodd" d="M68.1942 163.314H52.3596C50.9149 163.314 49.7423 162.141 49.7423 160.696V119.278C49.7423 117.833 50.9149 116.661 52.3596 116.661H68.1942C69.6415 116.661 70.8114 117.833 70.8114 119.278V160.696C70.8114 162.141 69.6415 163.314 68.1942 163.314Z" fill="#B3F0B3"/>
<path fill-rule="evenodd" clip-rule="evenodd" d="M68.1942 163.314H52.3596C50.9149 163.314 49.7423 162.141 49.7423 160.696V119.278C49.7423 117.833 50.9149 116.661 52.3596 116.661H68.1942C69.6415 116.661 70.8114 117.833 70.8114 119.278V160.696C70.8114 162.141 69.6415 163.314 68.1942 163.314Z" stroke="white" stroke-linejoin="round"/>
<path fill-rule="evenodd" clip-rule="evenodd" d="M68.1942 163.314H52.3596C50.9149 163.314 49.7423 162.141 49.7423 160.696V119.278C49.7423 117.833 50.9149 116.661 52.3596 116.661H68.1942C69.6415 116.661 70.8114 117.833 70.8114 119.278V160.696C70.8114 162.141 69.6415 163.314 68.1942 163.314Z" stroke="#008F00" stroke-linejoin="round"/>
<path fill-rule="evenodd" clip-rule="evenodd" d="M70.8114 160.304H77.2237C78.6711 160.304 79.841 159.132 79.841 157.687V122.288C79.841 120.843 78.6711 119.671 77.2237 119.671H70.8114V160.304Z" fill="white"/>
<path fill-rule="evenodd" clip-rule="evenodd" d="M70.8114 160.304H77.2237C78.6711 160.304 79.841 159.132 79.841 157.687V122.288C79.841 120.843 78.6711 119.671 77.2237 119.671H70.8114V160.304Z" stroke="#008F00" stroke-linecap="round" stroke-linejoin="round"/>
<path d="M59.625 84.8V95.4" stroke="#00CC00" stroke-width="1.5" stroke-linecap="round" stroke-linejoin="round"/>
<path d="M54.325 90.1001H64.925" stroke="#00CC00" stroke-width="1.5" stroke-linecap="round" stroke-linejoin="round"/>
<path d="M25.175 45.05V55.6501" stroke="#00CC00" stroke-width="1.5" stroke-linecap="round" stroke-linejoin="round"/>
<path d="M19.875 50.3501H30.475" stroke="#00CC00" stroke-width="1.5" stroke-linecap="round" stroke-linejoin="round"/>
<path d="M184.175 159V174.9" stroke="#00CC00" stroke-width="1.5" stroke-linecap="round" stroke-linejoin="round"/>
<path d="M176.225 166.95H192.125" stroke="#00CC00" stroke-width="1.5" stroke-linecap="round" stroke-linejoin="round"/>
<path d="M37.1 182.85C32.7094 182.85 29.15 179.291 29.15 174.9C29.15 170.509 32.7094 166.95 37.1 166.95C41.4907 166.95 45.05 170.509 45.05 174.9C45.05 179.291 41.4907 182.85 37.1 182.85Z" stroke="#00CC00" stroke-width="1.5"/>
<path d="M173.575 113.95C169.916 113.95 166.95 110.984 166.95 107.325C166.95 103.666 169.916 100.7 173.575 100.7C177.234 100.7 180.2 103.666 180.2 107.325C180.2 110.984 177.234 113.95 173.575 113.95Z" stroke="#00CC00" stroke-width="1.5"/>
</svg>
