<svg width="212" height="212" viewBox="0 0 212 212" fill="none" xmlns="http://www.w3.org/2000/svg">
<path fill-rule="evenodd" clip-rule="evenodd" d="M136.226 22.6601C132.383 21.68 128.47 24.0026 127.488 27.8489L114.252 79.7754H113.601L106.362 29.0871C105.799 25.1584 102.161 22.4295 98.2299 22.9896C94.3012 23.5496 91.5723 27.19 92.1351 31.1187L97.7851 70.6772L69.8177 76.179V97.7386C69.8177 116.248 77.0025 119.493 77.0025 130.074V144.446H118.323C118.323 141.047 119.899 137.843 122.593 135.771L127.304 132.04L127.845 84.6293L141.415 31.3987C142.395 27.5524 140.073 23.6375 136.226 22.6601Z" fill="white"/>
<path fill-rule="evenodd" clip-rule="evenodd" d="M136.226 22.6601C132.383 21.68 128.47 24.0026 127.488 27.8489L114.252 79.7754H113.601L106.362 29.0871C105.799 25.1584 102.161 22.4295 98.2299 22.9896C94.3012 23.5496 91.5723 27.19 92.1351 31.1187L97.7851 70.6772L69.8177 76.179V97.7386C69.8177 116.248 77.0025 119.493 77.0025 130.074V144.446H118.323C118.323 141.047 119.899 137.843 122.593 135.771L127.304 132.04L127.845 84.6293L141.415 31.3987C142.395 27.5524 140.073 23.6375 136.226 22.6601Z" stroke="#008F00" stroke-linecap="round" stroke-linejoin="round"/>
<path fill-rule="evenodd" clip-rule="evenodd" d="M94.922 99.451C90.9989 100.047 87.3365 97.348 86.7407 93.4248L83.2349 70.336C82.6391 66.4128 85.3378 62.7477 89.261 62.152C93.1842 61.5562 96.8493 64.255 97.4451 68.1781L100.948 91.2697C101.544 95.1901 98.848 98.8552 94.922 99.451Z" fill="white"/>
<path fill-rule="evenodd" clip-rule="evenodd" d="M94.922 99.451C90.9989 100.047 87.3365 97.348 86.7407 93.4248L83.2349 70.336C82.6391 66.4128 85.3378 62.7477 89.261 62.152C93.1842 61.5562 96.8493 64.255 97.4451 68.1781L100.948 91.2697C101.544 95.1901 98.848 98.8552 94.922 99.451Z" stroke="#008F00" stroke-linecap="round" stroke-linejoin="round"/>
<path fill-rule="evenodd" clip-rule="evenodd" d="M79.9052 96.2793C75.982 96.8751 72.3169 94.1764 71.7239 90.2532L69.5633 76.0457C68.9703 72.1198 71.669 68.4574 75.5922 67.8617C79.5126 67.2659 83.1777 69.9647 83.7735 73.8878L85.9313 88.098C86.5271 92.0185 83.8284 95.6836 79.9052 96.2793Z" fill="white"/>
<path fill-rule="evenodd" clip-rule="evenodd" d="M79.9052 96.2793C75.982 96.8751 72.3169 94.1764 71.7239 90.2532L69.5633 76.0457C68.9703 72.1198 71.669 68.4574 75.5922 67.8617C79.5126 67.2659 83.1777 69.9647 83.7735 73.8878L85.9313 88.098C86.5271 92.0185 83.8284 95.6836 79.9052 96.2793Z" stroke="#008F00" stroke-linecap="round" stroke-linejoin="round"/>
<path fill-rule="evenodd" clip-rule="evenodd" d="M118.319 144.522C118.319 141.123 119.898 137.919 122.594 135.847L132.56 128.179C138.306 123.759 142.106 116.917 142.106 109.669V97.5208C142.106 91.5633 137.276 86.7341 131.319 86.7341H116.222C112.255 86.7341 109.037 89.9517 109.037 93.9188C109.037 97.8914 112.255 101.065 116.222 101.065H128.269C115.371 101.065 103.95 111.863 103.95 124.761V130.15" fill="white"/>
<path d="M118.319 144.522C118.319 141.123 119.898 137.919 122.594 135.847L132.56 128.179C138.306 123.759 142.106 116.917 142.106 109.669V97.5208C142.106 91.5633 137.276 86.7341 131.319 86.7341H116.222C112.255 86.7341 109.037 89.9517 109.037 93.9188C109.037 97.8914 112.255 101.065 116.222 101.065H128.269C115.371 101.065 103.95 111.863 103.95 124.761V130.15" stroke="white" stroke-linecap="round" stroke-linejoin="round"/>
<path d="M118.319 144.522C118.319 141.123 119.898 137.919 122.594 135.847L132.56 128.179C138.306 123.759 142.106 116.917 142.106 109.669V97.5208C142.106 91.5633 137.276 86.7341 131.319 86.7341H116.222C112.255 86.7341 109.037 89.9517 109.037 93.9188C109.037 97.8914 112.255 101.065 116.222 101.065H128.269C115.371 101.065 103.95 111.863 103.95 124.761V130.15" stroke="#008F00" stroke-linecap="round" stroke-linejoin="round"/>
<path d="M128.253 101.065H132.009" stroke="#008F00" stroke-linecap="round" stroke-linejoin="round"/>
<path fill-rule="evenodd" clip-rule="evenodd" d="M124.59 157.135V191.694C124.59 192.805 122.982 193.706 120.997 193.706H72.491C70.5088 193.706 68.9 192.805 68.9 191.694V157.135C68.9 156.023 70.5088 155.122 72.491 155.122H120.997C122.982 155.122 124.59 156.023 124.59 157.135Z" fill="#B3F0B3"/>
<path fill-rule="evenodd" clip-rule="evenodd" d="M124.59 157.135V191.694C124.59 192.805 122.982 193.706 120.997 193.706H72.491C70.5088 193.706 68.9 192.805 68.9 191.694V157.135C68.9 156.023 70.5088 155.122 72.491 155.122H120.997C122.982 155.122 124.59 156.023 124.59 157.135Z" stroke="#008F00" stroke-linecap="round" stroke-linejoin="round"/>
<path fill-rule="evenodd" clip-rule="evenodd" d="M120.998 155.123V147.938C120.998 145.954 119.389 144.345 117.404 144.345H76.0858C74.1009 144.345 72.4921 145.954 72.4921 147.938V155.123H120.998Z" fill="white"/>
<path fill-rule="evenodd" clip-rule="evenodd" d="M120.998 155.123V147.938C120.998 145.954 119.389 144.345 117.404 144.345H76.0858C74.1009 144.345 72.4921 145.954 72.4921 147.938V155.123H120.998Z" stroke="#008F00" stroke-linecap="round" stroke-linejoin="round"/>
<path d="M54.325 38.3357C50.6661 38.3357 47.7 35.3696 47.7 31.7107C47.7 28.0518 50.6661 25.0857 54.325 25.0857C57.9838 25.0857 60.95 28.0518 60.95 31.7107C60.95 35.3696 57.9838 38.3357 54.325 38.3357Z" stroke="#00CC00" stroke-width="1.5"/>
<path fill-rule="evenodd" clip-rule="evenodd" d="M172.456 152.1C173.013 149.671 174.907 147.775 177.336 147.214L187.13 144.952C187.495 144.867 187.758 144.538 187.758 144.159C187.758 143.779 187.495 143.45 187.13 143.362L177.336 141.101C174.907 140.542 173.013 138.644 172.453 136.218L170.194 126.418C170.109 126.046 169.781 125.786 169.401 125.786C169.022 125.786 168.694 126.046 168.609 126.418L166.35 136.218C165.792 138.646 163.896 140.542 161.47 141.101L151.681 143.362C151.31 143.45 151.05 143.779 151.05 144.159C151.05 144.538 151.31 144.867 151.681 144.952L161.47 147.214C163.896 147.775 165.792 149.671 166.35 152.1L168.609 161.905C168.694 162.274 169.022 162.537 169.401 162.537C169.781 162.537 170.109 162.274 170.194 161.905L172.456 152.1Z" stroke="#008F00" stroke-linecap="round" stroke-linejoin="round"/>
<path d="M159 80.7357C154.609 80.7357 151.05 77.1764 151.05 72.7857C151.05 68.395 154.609 64.8357 159 64.8357C163.391 64.8357 166.95 68.395 166.95 72.7857C166.95 77.1764 163.391 80.7357 159 80.7357Z" stroke="#00CC00" stroke-width="1.5"/>
<path fill-rule="evenodd" clip-rule="evenodd" d="M40.4038 115.853L49.0714 112.96C49.4054 112.849 49.629 112.538 49.629 112.186C49.629 111.838 49.4054 111.523 49.0714 111.412L41.9465 109.035C40.9756 108.712 40.2141 107.949 39.8858 106.974L37.5137 99.844C37.4005 99.5095 37.0891 99.2856 36.7409 99.2856C36.3899 99.2856 36.0814 99.5095 35.9681 99.844L33.596 106.974C33.2677 107.946 32.5062 108.712 31.5353 109.035L24.4076 111.412C24.0736 111.523 23.85 111.835 23.85 112.186C23.85 112.538 24.0736 112.849 24.4076 112.96L31.5324 115.338C32.5062 115.663 33.2677 116.426 33.5932 117.401L35.9681 124.537C36.0814 124.868 36.3899 125.095 36.7409 125.095C37.0891 125.095 37.4005 124.868 37.5137 124.537L40.4038 115.853Z" stroke="#008F00" stroke-linecap="round" stroke-linejoin="round"/>
<path d="M30.475 184.086V194.686" stroke="#00CC00" stroke-width="1.5" stroke-linecap="round" stroke-linejoin="round"/>
<path d="M25.1749 189.386H35.7749" stroke="#00CC00" stroke-width="1.5" stroke-linecap="round" stroke-linejoin="round"/>
<path d="M176.225 17.1357V33.0357" stroke="#00CC00" stroke-width="1.5" stroke-linecap="round" stroke-linejoin="round"/>
<path d="M168.275 25.0857H184.175" stroke="#00CC00" stroke-width="1.5" stroke-linecap="round" stroke-linejoin="round"/>
</svg>
